<svg width="394" height="1728" viewBox="0 0 394 1728" fill="none" xmlns="http://www.w3.org/2000/svg">
	<path
		d="M280.5 1727.67C329 1352.17 177.5 1308.17 104.5 1237.67C31.5 1167.17 -2.5 1078.17 72.5 997.668C147.5 917.168 269.5 866.168 330.5 829.168C391.5 792.168 412.78 724.168 372 626.168C331.22 528.168 94.6654 503.168 60 492.668C-9.00004 471.768 -9.49997 408.168 19.5 386.668C48.5 365.168 97 363.168 97 301.668C97 240.168 32 231.668 32 189.668C32 147.668 59.5 124.168 59.5 105.168"
		stroke="#A855F7" stroke-linejoin="round" />
	<path
		d="M84.6724 31.2C84.6724 52.2087 60.97 69.7159 59.5 105.168C59.5 69.7159 34.6724 50.8956 34.6724 31.2C34.6724 11.5044 47.4311 1.00001 59.5 1C71.5689 0.999994 84.6724 10.1913 84.6724 31.2Z"
		stroke="#A855F7" stroke-linecap="round" stroke-linejoin="round" />
</svg>